                       StreetDance 2 DvDRip XviD 2012 By D.O


                        With External English And Greek Subs


                          *******************************






Movie Info

**********


Genres: Drama | Music | Romance 
Directors: Max Giwa, Dania Pasquini
Writer: Jane English (characters)
Stars: Tom Conti, George Sampson and Sofia Boutella 
Country: UK | Germany
Language: English
Subs: External English And Greek SRT
Release Date: 29 March 2012



Video Characteristics

*********************




Video
ID                             : 0
Format                         : MPEG-4 Visual
Format profile                 : Advanced Simple@L5
Format settings, BVOP          : 2
Format settings, QPel          : No
Format settings, GMC           : No warppoints
Format settings, Matrix        : Default (H.263)
Muxing mode                    : Packed bitstream
Codec ID                       : XVID
Codec ID/Hint                  : XviD
Duration                       : 1h 21mn
Bit rate                       : 1062 Kbps
Width                          : 640 pixels
Height                         : 336 pixels
Display aspect ratio           : 1.905
Frame rate                     : 25.000 fps
Color space                    : YUV
Chroma subsampling             : 4:2:0
Bit depth                      : 8 bits
Scan type                      : Progressive
Compression mode               : Lossy
Bits/(Pixel*Frame)             : 0.197
Stream size                    : 619 MiB (88%)
Writing library                : XviD 1.2.1 (UTC 2008-12-04)

Audio
ID                             : 1
Format                         : MPEG Audio
Format version                 : Version 1
Format profile                 : Layer 3
Mode                           : Joint stereo
Mode extension                 : MS Stereo
Codec ID                       : 55
Codec ID/Hint                  : MP3
Duration                       : 1h 21mn
Bit rate mode                  : Variable
Bit rate                       : 128 Kbps
Channel(s)                     : 2 channels
Sampling rate                  : 48.0 KHz
Compression mode               : Lossy
Stream size                    : 73.2 MiB (10%)
Alignment                      : Aligned on interleaves
Interleave, duration           : 24 ms (0.60 video frame)
Interleave, preload duration   : 128 ms





Multi Screenshots

*****************


 
http://bayimg.com/EAaIeAAeD





Movie Plot

**********

After suffering humiliation by the crew Invincible, street dancer Ash (Hentschel) looks to gather the best dancers from around the world for a rematch.   




              Enjoy and Please don't forget to seed...!!!